<?xml version="1.0" standalone="no"?>
<!DOCTYPE svg PUBLIC "-//W3C//DTD SVG 20010904//EN"
 "http://www.w3.org/TR/2001/REC-SVG-20010904/DTD/svg10.dtd">
<svg version="1.0" xmlns="http://www.w3.org/2000/svg"
 width="462.000000pt" height="457.000000pt" viewBox="0 0 462.000000 457.000000"
 preserveAspectRatio="xMidYMid meet">

<g transform="translate(0.000000,457.000000) scale(0.100000,-0.100000)"
fill="#000000" stroke="none">
<path d="M2 2283 l3 -2288 2 2283 3 2282 1668 0 c1652 0 1667 -1 1642 -20 -14
-11 -40 -27 -57 -37 -18 -10 -33 -20 -32 -23 0 -3 39 -35 87 -72 150 -115 462
-400 462 -421 0 -5 -23 -34 -51 -65 -75 -84 -170 -232 -233 -362 -30 -63 -54
-115 -53 -117 7 -6 85 23 119 44 40 25 86 96 133 206 25 59 143 217 163 217 6
0 242 -227 472 -454 124 -122 154 -140 223 -133 53 5 67 17 67 59 0 20 -15 39
-62 79 -129 109 -258 229 -427 395 l-174 171 94 93 c80 78 204 183 312 265 24
18 25 22 14 42 l-13 23 -69 -34 c-94 -45 -173 -105 -299 -226 l-105 -101 -143
137 c-79 75 -196 181 -261 235 l-117 99 627 3 c346 1 -413 3 -1684 5 l-2313 2
2 -2287z"/>
<path d="M2900 3870 l0 -660 -615 0 -615 0 0 640 0 640 -25 0 -25 0 0 -640 0
-640 -790 0 -790 0 0 -25 0 -25 788 -2 787 -3 3 -682 2 -683 -780 0 -780 0 0
-25 0 -25 780 0 780 0 0 -870 0 -870 25 0 25 0 0 870 0 870 615 0 615 0 0
-865 0 -865 30 0 30 0 0 865 0 865 815 0 815 0 0 25 0 25 -815 0 -815 0 0 685
0 685 806 0 805 0 -3 23 -3 22 -802 3 -803 2 0 660 0 660 -30 0 -30 0 0 -660z
m0 -1395 l0 -685 -615 0 -615 0 0 678 c0 373 3 682 7 685 3 4 280 7 615 7
l608 0 0 -685z"/>
<path d="M1947 2973 l-59 -36 59 -61 c53 -54 197 -214 247 -273 l18 -22 -106
-102 c-100 -95 -226 -259 -226 -293 0 -23 28 -39 55 -32 40 10 112 82 146 146
17 31 65 91 109 135 l80 80 108 -115 c59 -63 147 -153 195 -200 51 -49 98
-103 110 -129 35 -74 122 -91 167 -34 42 54 26 85 -106 204 -91 82 -354 357
-353 369 0 3 50 44 112 92 62 48 136 108 165 135 49 44 52 50 39 67 -24 33
-90 1 -209 -101 -57 -48 -117 -98 -134 -110 l-30 -22 -122 137 c-172 194 -180
202 -194 202 -7 0 -39 -17 -71 -37z"/>
<path d="M900 4361 c-8 -4 -42 -13 -75 -20 -80 -17 -209 -80 -266 -129 -93
-83 -148 -239 -129 -371 25 -178 100 -271 296 -371 l109 -55 115 0 c133 0 196
19 268 81 63 54 89 105 106 216 20 120 20 154 1 243 -31 148 -132 294 -259
377 -47 30 -68 38 -105 38 -25 0 -53 -4 -61 -9z m54 -138 c18 -16 53 -42 78
-60 130 -89 202 -370 138 -539 -41 -108 -69 -123 -180 -100 -187 40 -337 141
-396 269 -31 70 -37 214 -10 267 42 81 101 150 136 160 129 38 192 39 234 3z"/>
<path d="M3669 3056 c-324 -177 -394 -232 -455 -360 -33 -69 -36 -83 -32 -144
4 -83 32 -143 100 -217 49 -54 144 -120 212 -149 106 -44 293 -58 401 -31 146
38 277 133 330 238 31 62 34 168 7 234 -42 103 -138 195 -267 258 -65 31 -103
44 -225 76 -25 6 -52 14 -60 16 -10 3 -6 9 14 22 15 10 34 28 42 39 13 19 13
22 -5 31 -14 8 -29 5 -62 -13z m-66 -206 c168 -21 298 -75 394 -164 64 -59
123 -159 123 -208 0 -32 -45 -124 -83 -170 -44 -54 -203 -73 -348 -43 -275 58
-426 277 -328 473 35 71 101 134 133 127 12 -2 60 -9 109 -15z"/>
<path d="M463 2956 c-35 -22 -63 -44 -63 -48 0 -3 30 -23 67 -43 87 -48 238
-160 340 -253 82 -75 82 -75 64 -98 -10 -13 -103 -111 -207 -218 -105 -107
-196 -206 -203 -219 -16 -31 -8 -57 17 -57 28 0 110 58 163 115 135 144 314
325 320 323 9 -4 235 -245 292 -311 74 -87 145 -98 206 -33 l21 22 -67 69
c-36 39 -131 137 -211 218 l-144 148 19 22 c10 12 53 60 94 107 125 142 209
247 209 262 0 49 -73 35 -135 -27 -22 -22 -75 -83 -117 -135 -43 -52 -92 -110
-109 -129 l-31 -33 -56 54 c-85 82 -185 163 -281 227 -130 87 -117 85 -188 37z"/>
<path d="M610 1441 c-191 -62 -410 -222 -478 -348 -45 -85 -72 -193 -72 -288
0 -200 85 -326 255 -379 28 -8 77 -24 109 -36 86 -29 228 -28 317 4 138 48
244 147 291 270 32 85 31 225 -2 310 -36 95 -87 173 -165 255 -40 42 -77 86
-84 98 -6 13 -30 32 -52 44 l-41 20 32 24 c17 13 28 25 23 28 -25 16 -83 15
-133 -2z m-56 -161 c53 0 267 -214 318 -318 30 -61 33 -75 35 -170 3 -120 -4
-143 -73 -240 l-47 -65 -136 6 c-199 8 -314 50 -388 143 -135 171 -46 497 174
643 41 27 46 28 71 15 15 -8 35 -14 46 -14z"/>
</g>
</svg>
